<svg xmlns="http://www.w3.org/2000/svg" xmlns:xlink="http://www.w3.org/1999/xlink" width="1665" zoomAndPan="magnify" viewBox="123.000 553.500 1248.750 381.750" height="509" preserveAspectRatio="xMidYMid meet" version="1.0"><defs><g/></defs><rect x="-150" width="1800" fill="#ffffff" y="-149.999993" height="1799.99992" fill-opacity="1"/><rect x="-150" width="1800" fill="#002352" y="-149.999993" height="1799.99992" fill-opacity="1"/><g fill="#ffffff" fill-opacity="1"><g transform="translate(168.000019, 738.749916)"><g><path d="M 36.28125 -90.390625 L 0.640625 -90.390625 L 0.640625 -111.390625 L 97.71875 -111.390625 L 97.71875 -90.390625 L 62.0625 -90.390625 L 62.0625 0 L 36.28125 0 Z M 36.28125 -90.390625 "/></g></g></g><g fill="#ffffff" fill-opacity="1"><g transform="translate(266.341632, 738.749916)"><g><path d="M 95.328125 -42.484375 C 95.328125 -42.171875 95.164062 -39.945312 94.84375 -35.8125 L 30.078125 -35.8125 C 31.242188 -30.5 34 -26.304688 38.34375 -23.234375 C 42.695312 -20.160156 48.109375 -18.625 54.578125 -18.625 C 59.035156 -18.625 62.988281 -19.285156 66.4375 -20.609375 C 69.882812 -21.929688 73.09375 -24.023438 76.0625 -26.890625 L 89.28125 -12.578125 C 81.21875 -3.347656 69.441406 1.265625 53.953125 1.265625 C 44.296875 1.265625 35.753906 -0.613281 28.328125 -4.375 C 20.898438 -8.144531 15.171875 -13.367188 11.140625 -20.046875 C 7.109375 -26.734375 5.09375 -34.320312 5.09375 -42.8125 C 5.09375 -51.1875 7.082031 -58.742188 11.0625 -65.484375 C 15.039062 -72.222656 20.503906 -77.472656 27.453125 -81.234375 C 34.398438 -85.003906 42.171875 -86.890625 50.765625 -86.890625 C 59.148438 -86.890625 66.734375 -85.082031 73.515625 -81.46875 C 80.304688 -77.863281 85.640625 -72.691406 89.515625 -65.953125 C 93.390625 -59.222656 95.328125 -51.398438 95.328125 -42.484375 Z M 50.921875 -68.109375 C 45.296875 -68.109375 40.570312 -66.515625 36.75 -63.328125 C 32.9375 -60.148438 30.609375 -55.800781 29.765625 -50.28125 L 71.9375 -50.28125 C 71.082031 -55.695312 68.742188 -60.019531 64.921875 -63.25 C 61.109375 -66.488281 56.441406 -68.109375 50.921875 -68.109375 Z M 50.921875 -68.109375 "/></g></g></g><g fill="#ffffff" fill-opacity="1"><g transform="translate(366.751925, 738.749916)"><g><path d="M 63.5 -86.890625 C 74.101562 -86.890625 82.664062 -83.707031 89.1875 -77.34375 C 95.71875 -70.976562 98.984375 -61.535156 98.984375 -49.015625 L 98.984375 0 L 74.15625 0 L 74.15625 -45.203125 C 74.15625 -51.984375 72.671875 -57.046875 69.703125 -60.390625 C 66.734375 -63.734375 62.4375 -65.40625 56.8125 -65.40625 C 50.550781 -65.40625 45.5625 -63.46875 41.84375 -59.59375 C 38.132812 -55.726562 36.28125 -49.972656 36.28125 -42.328125 L 36.28125 0 L 11.453125 0 L 11.453125 -85.625 L 35.171875 -85.625 L 35.171875 -75.59375 C 38.460938 -79.195312 42.546875 -81.976562 47.421875 -83.9375 C 52.304688 -85.90625 57.664062 -86.890625 63.5 -86.890625 Z M 63.5 -86.890625 "/></g></g></g><g fill="#ffffff" fill-opacity="1"><g transform="translate(476.709954, 738.749916)"><g><path d="M 40.265625 1.265625 C 33.148438 1.265625 26.195312 0.390625 19.40625 -1.359375 C 12.625 -3.109375 7.21875 -5.304688 3.1875 -7.953125 L 11.453125 -25.78125 C 15.273438 -23.34375 19.890625 -21.351562 25.296875 -19.8125 C 30.710938 -18.269531 36.019531 -17.5 41.21875 -17.5 C 51.71875 -17.5 56.96875 -20.097656 56.96875 -25.296875 C 56.96875 -27.742188 55.535156 -29.492188 52.671875 -30.546875 C 49.804688 -31.609375 45.40625 -32.515625 39.46875 -33.265625 C 32.46875 -34.328125 26.6875 -35.546875 22.125 -36.921875 C 17.5625 -38.296875 13.609375 -40.734375 10.265625 -44.234375 C 6.921875 -47.742188 5.25 -52.734375 5.25 -59.203125 C 5.25 -64.609375 6.8125 -69.40625 9.9375 -73.59375 C 13.070312 -77.789062 17.632812 -81.054688 23.625 -83.390625 C 29.625 -85.722656 36.707031 -86.890625 44.875 -86.890625 C 50.925781 -86.890625 56.945312 -86.222656 62.9375 -84.890625 C 68.9375 -83.566406 73.894531 -81.738281 77.8125 -79.40625 L 69.546875 -61.75 C 62.015625 -65.988281 53.789062 -68.109375 44.875 -68.109375 C 39.570312 -68.109375 35.59375 -67.363281 32.9375 -65.875 C 30.289062 -64.394531 28.96875 -62.488281 28.96875 -60.15625 C 28.96875 -57.5 30.398438 -55.640625 33.265625 -54.578125 C 36.128906 -53.523438 40.691406 -52.519531 46.953125 -51.5625 C 53.953125 -50.394531 59.675781 -49.144531 64.125 -47.8125 C 68.582031 -46.488281 72.457031 -44.078125 75.75 -40.578125 C 79.039062 -37.078125 80.6875 -32.195312 80.6875 -25.9375 C 80.6875 -20.632812 79.09375 -15.910156 75.90625 -11.765625 C 72.726562 -7.628906 68.085938 -4.421875 61.984375 -2.140625 C 55.878906 0.128906 48.640625 1.265625 40.265625 1.265625 Z M 40.265625 1.265625 "/></g></g></g><g fill="#ffffff" fill-opacity="1"><g transform="translate(561.207353, 738.749916)"><g><path d="M 11.453125 -85.625 L 36.28125 -85.625 L 36.28125 0 L 11.453125 0 Z M 23.875 -97.546875 C 19.3125 -97.546875 15.597656 -98.875 12.734375 -101.53125 C 9.867188 -104.1875 8.4375 -107.472656 8.4375 -111.390625 C 8.4375 -115.316406 9.867188 -118.609375 12.734375 -121.265625 C 15.597656 -123.921875 19.3125 -125.25 23.875 -125.25 C 28.425781 -125.25 32.132812 -123.972656 35 -121.421875 C 37.863281 -118.878906 39.296875 -115.695312 39.296875 -111.875 C 39.296875 -107.738281 37.863281 -104.316406 35 -101.609375 C 32.132812 -98.898438 28.425781 -97.546875 23.875 -97.546875 Z M 23.875 -97.546875 "/></g></g></g><g fill="#ffffff" fill-opacity="1"><g transform="translate(609.105129, 738.749916)"><g><path d="M 11.453125 -118.078125 L 36.28125 -118.078125 L 36.28125 0 L 11.453125 0 Z M 11.453125 -118.078125 "/></g></g></g><g fill="#ffffff" fill-opacity="1"><g transform="translate(657.002906, 738.749916)"><g><path d="M 95.328125 -42.484375 C 95.328125 -42.171875 95.164062 -39.945312 94.84375 -35.8125 L 30.078125 -35.8125 C 31.242188 -30.5 34 -26.304688 38.34375 -23.234375 C 42.695312 -20.160156 48.109375 -18.625 54.578125 -18.625 C 59.035156 -18.625 62.988281 -19.285156 66.4375 -20.609375 C 69.882812 -21.929688 73.09375 -24.023438 76.0625 -26.890625 L 89.28125 -12.578125 C 81.21875 -3.347656 69.441406 1.265625 53.953125 1.265625 C 44.296875 1.265625 35.753906 -0.613281 28.328125 -4.375 C 20.898438 -8.144531 15.171875 -13.367188 11.140625 -20.046875 C 7.109375 -26.734375 5.09375 -34.320312 5.09375 -42.8125 C 5.09375 -51.1875 7.082031 -58.742188 11.0625 -65.484375 C 15.039062 -72.222656 20.503906 -77.472656 27.453125 -81.234375 C 34.398438 -85.003906 42.171875 -86.890625 50.765625 -86.890625 C 59.148438 -86.890625 66.734375 -85.082031 73.515625 -81.46875 C 80.304688 -77.863281 85.640625 -72.691406 89.515625 -65.953125 C 93.390625 -59.222656 95.328125 -51.398438 95.328125 -42.484375 Z M 50.921875 -68.109375 C 45.296875 -68.109375 40.570312 -66.515625 36.75 -63.328125 C 32.9375 -60.148438 30.609375 -55.800781 29.765625 -50.28125 L 71.9375 -50.28125 C 71.082031 -55.695312 68.742188 -60.019531 64.921875 -63.25 C 61.109375 -66.488281 56.441406 -68.109375 50.921875 -68.109375 Z M 50.921875 -68.109375 "/></g></g></g><g fill="#ffffff" fill-opacity="1"><g transform="translate(168.000019, 873.749905)"><g><path d="M 13.203125 -111.390625 L 38.984375 -111.390625 L 38.984375 0 L 13.203125 0 Z M 13.203125 -111.390625 "/></g></g></g><g fill="#ffffff" fill-opacity="1"><g transform="translate(220.194274, 873.749905)"><g><path d="M 63.5 -86.890625 C 74.101562 -86.890625 82.664062 -83.707031 89.1875 -77.34375 C 95.71875 -70.976562 98.984375 -61.535156 98.984375 -49.015625 L 98.984375 0 L 74.15625 0 L 74.15625 -45.203125 C 74.15625 -51.984375 72.671875 -57.046875 69.703125 -60.390625 C 66.734375 -63.734375 62.4375 -65.40625 56.8125 -65.40625 C 50.550781 -65.40625 45.5625 -63.46875 41.84375 -59.59375 C 38.132812 -55.726562 36.28125 -49.972656 36.28125 -42.328125 L 36.28125 0 L 11.453125 0 L 11.453125 -85.625 L 35.171875 -85.625 L 35.171875 -75.59375 C 38.460938 -79.195312 42.546875 -81.976562 47.421875 -83.9375 C 52.304688 -85.90625 57.664062 -86.890625 63.5 -86.890625 Z M 63.5 -86.890625 "/></g></g></g><g fill="#ffffff" fill-opacity="1"><g transform="translate(330.152292, 873.749905)"><g><path d="M 38.671875 -83.703125 L 60.625 -83.703125 L 60.625 -64.609375 L 39.3125 -64.609375 L 39.3125 0 L 14.484375 0 L 14.484375 -64.609375 L 1.265625 -64.609375 L 1.265625 -83.703125 L 14.484375 -83.703125 L 14.484375 -87.53125 C 14.484375 -97.289062 17.375 -105.035156 23.15625 -110.765625 C 28.9375 -116.492188 37.078125 -119.359375 47.578125 -119.359375 C 51.296875 -119.359375 54.820312 -118.957031 58.15625 -118.15625 C 61.5 -117.363281 64.285156 -116.222656 66.515625 -114.734375 L 60 -96.75 C 57.132812 -98.769531 53.789062 -99.78125 49.96875 -99.78125 C 42.4375 -99.78125 38.671875 -95.644531 38.671875 -87.375 Z M 38.671875 -83.703125 "/></g></g></g><g fill="#ffffff" fill-opacity="1"><g transform="translate(391.735153, 873.749905)"><g><path d="M 35.171875 -74.3125 C 38.140625 -78.457031 42.144531 -81.585938 47.1875 -83.703125 C 52.226562 -85.828125 58.035156 -86.890625 64.609375 -86.890625 L 64.609375 -63.96875 C 61.847656 -64.1875 59.992188 -64.296875 59.046875 -64.296875 C 51.929688 -64.296875 46.359375 -62.304688 42.328125 -58.328125 C 38.296875 -54.347656 36.28125 -48.378906 36.28125 -40.421875 L 36.28125 0 L 11.453125 0 L 11.453125 -85.625 L 35.171875 -85.625 Z M 35.171875 -74.3125 "/></g></g></g><g fill="#ffffff" fill-opacity="1"><g transform="translate(460.319681, 873.749905)"><g><path d="M 45.984375 -86.890625 C 59.253906 -86.890625 69.441406 -83.734375 76.546875 -77.421875 C 83.648438 -71.109375 87.203125 -61.585938 87.203125 -48.859375 L 87.203125 0 L 63.96875 0 L 63.96875 -10.65625 C 59.300781 -2.707031 50.601562 1.265625 37.875 1.265625 C 31.300781 1.265625 25.597656 0.15625 20.765625 -2.0625 C 15.941406 -4.289062 12.253906 -7.367188 9.703125 -11.296875 C 7.160156 -15.222656 5.890625 -19.679688 5.890625 -24.671875 C 5.890625 -32.628906 8.882812 -38.882812 14.875 -43.4375 C 20.875 -48 30.132812 -50.28125 42.65625 -50.28125 L 62.390625 -50.28125 C 62.390625 -55.695312 60.742188 -59.863281 57.453125 -62.78125 C 54.160156 -65.695312 49.226562 -67.15625 42.65625 -67.15625 C 38.09375 -67.15625 33.609375 -66.4375 29.203125 -65 C 24.796875 -63.570312 21.054688 -61.640625 17.984375 -59.203125 L 9.078125 -76.546875 C 13.742188 -79.835938 19.335938 -82.382812 25.859375 -84.1875 C 32.378906 -85.988281 39.085938 -86.890625 45.984375 -86.890625 Z M 44.078125 -15.4375 C 48.328125 -15.4375 52.09375 -16.414062 55.375 -18.375 C 58.664062 -20.34375 61.003906 -23.234375 62.390625 -27.046875 L 62.390625 -35.8125 L 45.359375 -35.8125 C 35.171875 -35.8125 30.078125 -32.46875 30.078125 -25.78125 C 30.078125 -22.59375 31.320312 -20.070312 33.8125 -18.21875 C 36.3125 -16.363281 39.734375 -15.4375 44.078125 -15.4375 Z M 44.078125 -15.4375 "/></g></g></g><g fill="#ffffff" fill-opacity="1"><g transform="translate(558.502152, 873.749905)"><g><path d="M 40.265625 1.265625 C 33.148438 1.265625 26.195312 0.390625 19.40625 -1.359375 C 12.625 -3.109375 7.21875 -5.304688 3.1875 -7.953125 L 11.453125 -25.78125 C 15.273438 -23.34375 19.890625 -21.351562 25.296875 -19.8125 C 30.710938 -18.269531 36.019531 -17.5 41.21875 -17.5 C 51.71875 -17.5 56.96875 -20.097656 56.96875 -25.296875 C 56.96875 -27.742188 55.535156 -29.492188 52.671875 -30.546875 C 49.804688 -31.609375 45.40625 -32.515625 39.46875 -33.265625 C 32.46875 -34.328125 26.6875 -35.546875 22.125 -36.921875 C 17.5625 -38.296875 13.609375 -40.734375 10.265625 -44.234375 C 6.921875 -47.742188 5.25 -52.734375 5.25 -59.203125 C 5.25 -64.609375 6.8125 -69.40625 9.9375 -73.59375 C 13.070312 -77.789062 17.632812 -81.054688 23.625 -83.390625 C 29.625 -85.722656 36.707031 -86.890625 44.875 -86.890625 C 50.925781 -86.890625 56.945312 -86.222656 62.9375 -84.890625 C 68.9375 -83.566406 73.894531 -81.738281 77.8125 -79.40625 L 69.546875 -61.75 C 62.015625 -65.988281 53.789062 -68.109375 44.875 -68.109375 C 39.570312 -68.109375 35.59375 -67.363281 32.9375 -65.875 C 30.289062 -64.394531 28.96875 -62.488281 28.96875 -60.15625 C 28.96875 -57.5 30.398438 -55.640625 33.265625 -54.578125 C 36.128906 -53.523438 40.691406 -52.519531 46.953125 -51.5625 C 53.953125 -50.394531 59.675781 -49.144531 64.125 -47.8125 C 68.582031 -46.488281 72.457031 -44.078125 75.75 -40.578125 C 79.039062 -37.078125 80.6875 -32.195312 80.6875 -25.9375 C 80.6875 -20.632812 79.09375 -15.910156 75.90625 -11.765625 C 72.726562 -7.628906 68.085938 -4.421875 61.984375 -2.140625 C 55.878906 0.128906 48.640625 1.265625 40.265625 1.265625 Z M 40.265625 1.265625 "/></g></g></g><g fill="#ffffff" fill-opacity="1"><g transform="translate(642.999597, 873.749905)"><g><path d="M 66.6875 -4.140625 C 64.238281 -2.335938 61.238281 -0.984375 57.6875 -0.078125 C 54.132812 0.816406 50.394531 1.265625 46.46875 1.265625 C 36.28125 1.265625 28.398438 -1.332031 22.828125 -6.53125 C 17.265625 -11.726562 14.484375 -19.363281 14.484375 -29.4375 L 14.484375 -64.609375 L 1.265625 -64.609375 L 1.265625 -83.703125 L 14.484375 -83.703125 L 14.484375 -104.5625 L 39.3125 -104.5625 L 39.3125 -83.703125 L 60.625 -83.703125 L 60.625 -64.609375 L 39.3125 -64.609375 L 39.3125 -29.765625 C 39.3125 -26.148438 40.238281 -23.359375 42.09375 -21.390625 C 43.945312 -19.429688 46.570312 -18.453125 49.96875 -18.453125 C 53.894531 -18.453125 57.238281 -19.515625 60 -21.640625 Z M 66.6875 -4.140625 "/></g></g></g><g fill="#ffffff" fill-opacity="1"><g transform="translate(712.220645, 873.749905)"><g><path d="M 35.171875 -74.3125 C 38.140625 -78.457031 42.144531 -81.585938 47.1875 -83.703125 C 52.226562 -85.828125 58.035156 -86.890625 64.609375 -86.890625 L 64.609375 -63.96875 C 61.847656 -64.1875 59.992188 -64.296875 59.046875 -64.296875 C 51.929688 -64.296875 46.359375 -62.304688 42.328125 -58.328125 C 38.296875 -54.347656 36.28125 -48.378906 36.28125 -40.421875 L 36.28125 0 L 11.453125 0 L 11.453125 -85.625 L 35.171875 -85.625 Z M 35.171875 -74.3125 "/></g></g></g><g fill="#ffffff" fill-opacity="1"><g transform="translate(780.805173, 873.749905)"><g><path d="M 97.71875 -85.625 L 97.71875 0 L 74.15625 0 L 74.15625 -10.1875 C 70.863281 -6.46875 66.9375 -3.628906 62.375 -1.671875 C 57.820312 0.285156 52.890625 1.265625 47.578125 1.265625 C 36.335938 1.265625 27.425781 -1.96875 20.84375 -8.4375 C 14.269531 -14.90625 10.984375 -24.503906 10.984375 -37.234375 L 10.984375 -85.625 L 35.8125 -85.625 L 35.8125 -40.90625 C 35.8125 -27.101562 41.59375 -20.203125 53.15625 -20.203125 C 59.09375 -20.203125 63.863281 -22.140625 67.46875 -26.015625 C 71.082031 -29.890625 72.890625 -35.644531 72.890625 -43.28125 L 72.890625 -85.625 Z M 97.71875 -85.625 "/></g></g></g><g fill="#ffffff" fill-opacity="1"><g transform="translate(890.126636, 873.749905)"><g><path d="M 52.828125 1.265625 C 43.710938 1.265625 35.519531 -0.613281 28.25 -4.375 C 20.976562 -8.144531 15.300781 -13.367188 11.21875 -20.046875 C 7.132812 -26.734375 5.09375 -34.320312 5.09375 -42.8125 C 5.09375 -51.300781 7.132812 -58.882812 11.21875 -65.5625 C 15.300781 -72.25 20.976562 -77.472656 28.25 -81.234375 C 35.519531 -85.003906 43.710938 -86.890625 52.828125 -86.890625 C 61.847656 -86.890625 69.726562 -85.003906 76.46875 -81.234375 C 83.207031 -77.472656 88.113281 -72.09375 91.1875 -65.09375 L 71.9375 -54.75 C 67.476562 -62.59375 61.054688 -66.515625 52.671875 -66.515625 C 46.203125 -66.515625 40.84375 -64.394531 36.59375 -60.15625 C 32.351562 -55.914062 30.234375 -50.132812 30.234375 -42.8125 C 30.234375 -35.488281 32.351562 -29.703125 36.59375 -25.453125 C 40.84375 -21.210938 46.203125 -19.09375 52.671875 -19.09375 C 61.160156 -19.09375 67.582031 -23.019531 71.9375 -30.875 L 91.1875 -20.375 C 88.113281 -13.582031 83.207031 -8.273438 76.46875 -4.453125 C 69.726562 -0.640625 61.847656 1.265625 52.828125 1.265625 Z M 52.828125 1.265625 "/></g></g></g><g fill="#ffffff" fill-opacity="1"><g transform="translate(984.171794, 873.749905)"><g><path d="M 66.6875 -4.140625 C 64.238281 -2.335938 61.238281 -0.984375 57.6875 -0.078125 C 54.132812 0.816406 50.394531 1.265625 46.46875 1.265625 C 36.28125 1.265625 28.398438 -1.332031 22.828125 -6.53125 C 17.265625 -11.726562 14.484375 -19.363281 14.484375 -29.4375 L 14.484375 -64.609375 L 1.265625 -64.609375 L 1.265625 -83.703125 L 14.484375 -83.703125 L 14.484375 -104.5625 L 39.3125 -104.5625 L 39.3125 -83.703125 L 60.625 -83.703125 L 60.625 -64.609375 L 39.3125 -64.609375 L 39.3125 -29.765625 C 39.3125 -26.148438 40.238281 -23.359375 42.09375 -21.390625 C 43.945312 -19.429688 46.570312 -18.453125 49.96875 -18.453125 C 53.894531 -18.453125 57.238281 -19.515625 60 -21.640625 Z M 66.6875 -4.140625 "/></g></g></g><g fill="#ffffff" fill-opacity="1"><g transform="translate(1053.392796, 873.749905)"><g><path d="M 97.71875 -85.625 L 97.71875 0 L 74.15625 0 L 74.15625 -10.1875 C 70.863281 -6.46875 66.9375 -3.628906 62.375 -1.671875 C 57.820312 0.285156 52.890625 1.265625 47.578125 1.265625 C 36.335938 1.265625 27.425781 -1.96875 20.84375 -8.4375 C 14.269531 -14.90625 10.984375 -24.503906 10.984375 -37.234375 L 10.984375 -85.625 L 35.8125 -85.625 L 35.8125 -40.90625 C 35.8125 -27.101562 41.59375 -20.203125 53.15625 -20.203125 C 59.09375 -20.203125 63.863281 -22.140625 67.46875 -26.015625 C 71.082031 -29.890625 72.890625 -35.644531 72.890625 -43.28125 L 72.890625 -85.625 Z M 97.71875 -85.625 "/></g></g></g><g fill="#ffffff" fill-opacity="1"><g transform="translate(1162.714351, 873.749905)"><g><path d="M 35.171875 -74.3125 C 38.140625 -78.457031 42.144531 -81.585938 47.1875 -83.703125 C 52.226562 -85.828125 58.035156 -86.890625 64.609375 -86.890625 L 64.609375 -63.96875 C 61.847656 -64.1875 59.992188 -64.296875 59.046875 -64.296875 C 51.929688 -64.296875 46.359375 -62.304688 42.328125 -58.328125 C 38.296875 -54.347656 36.28125 -48.378906 36.28125 -40.421875 L 36.28125 0 L 11.453125 0 L 11.453125 -85.625 L 35.171875 -85.625 Z M 35.171875 -74.3125 "/></g></g></g><g fill="#ffffff" fill-opacity="1"><g transform="translate(1231.298879, 873.749905)"><g><path d="M 95.328125 -42.484375 C 95.328125 -42.171875 95.164062 -39.945312 94.84375 -35.8125 L 30.078125 -35.8125 C 31.242188 -30.5 34 -26.304688 38.34375 -23.234375 C 42.695312 -20.160156 48.109375 -18.625 54.578125 -18.625 C 59.035156 -18.625 62.988281 -19.285156 66.4375 -20.609375 C 69.882812 -21.929688 73.09375 -24.023438 76.0625 -26.890625 L 89.28125 -12.578125 C 81.21875 -3.347656 69.441406 1.265625 53.953125 1.265625 C 44.296875 1.265625 35.753906 -0.613281 28.328125 -4.375 C 20.898438 -8.144531 15.171875 -13.367188 11.140625 -20.046875 C 7.109375 -26.734375 5.09375 -34.320312 5.09375 -42.8125 C 5.09375 -51.1875 7.082031 -58.742188 11.0625 -65.484375 C 15.039062 -72.222656 20.503906 -77.472656 27.453125 -81.234375 C 34.398438 -85.003906 42.171875 -86.890625 50.765625 -86.890625 C 59.148438 -86.890625 66.734375 -85.082031 73.515625 -81.46875 C 80.304688 -77.863281 85.640625 -72.691406 89.515625 -65.953125 C 93.390625 -59.222656 95.328125 -51.398438 95.328125 -42.484375 Z M 50.921875 -68.109375 C 45.296875 -68.109375 40.570312 -66.515625 36.75 -63.328125 C 32.9375 -60.148438 30.609375 -55.800781 29.765625 -50.28125 L 71.9375 -50.28125 C 71.082031 -55.695312 68.742188 -60.019531 64.921875 -63.25 C 61.109375 -66.488281 56.441406 -68.109375 50.921875 -68.109375 Z M 50.921875 -68.109375 "/></g></g></g></svg>